# xmcd
#
# Track frame offsets:
# 150
# 15811
# 31370
# 50812
# 61814
# 79173
# 98473
# 114771
# 128981
# 146287
#
# Disc length: 2099 seconds
#
#
# Revision: 0
# Processed by: cddbd v1.5.1PL0 Copyright (c) Steve Scherf et al.
# Submitted via: FreeRIP 2.91 
#
DISCID=7008310a
DTITLE=Mike Manuel - Building A Better Country
DYEAR=2001
DGENRE=Gospel
TTITLE0=Country, Just Not The Neon Kind
TTITLE1=Must've Come From The Devil
TTITLE2=The Great Fixer Upper
TTITLE3=Is Your Heart Talken
TTITLE4=Grandpa Was Just Like That
TTITLE5=Got My Name In The Big Book
TTITLE6=Phone In Heaven
TTITLE7=Get In My Way
TTITLE8=Welcome To The Lost And Found
TTITLE9=Hey Mister Devil
EXTD=
EXTT0=
EXTT1=
EXTT2=
EXTT3=
EXTT4=
EXTT5=
EXTT6=
EXTT7=
EXTT8=
EXTT9=
PLAYORDER=
